<?xml version="1.0" encoding="utf-8"?>
<svg xmlns="http://www.w3.org/2000/svg" version="1.1" viewBox="0.00 0.00 1024.00 1024.00">
  <g stroke-width="2.00" fill="none" stroke-linecap="butt" style="" transform="matrix(1.27709, 0, 0, 1.27709, -157.858, -151.894)">
    <path stroke="#9095a2" vector-effect="non-scaling-stroke" d=" M 907.24 519.03 Q 907.81 508.00 899.02 502.54 Q 892.08 498.22 886.24 495.99 Q 852.36 483.02 832.47 474.79 C 817.21 468.48 801.59 459.89 794.30 444.38 C 789.29 433.69 788.52 421.17 787.80 409.85 Q 782.39 325.46 780.89 289.99 Q 780.21 274.17 779.02 247.50 Q 778.47 235.26 773.24 224.97 C 763.91 206.58 743.44 203.11 724.98 202.80 Q 708.46 202.52 648.64 202.46 A 0.55 0.54 -89.5 0 0 648.09 203.01 L 648.09 249.20 A 0.53 0.52 -6.6 0 0 648.74 249.71 Q 668.97 244.97 688.99 244.98 C 702.33 244.99 716.61 247.05 724.15 258.85 C 730.03 268.07 731.63 283.02 731.62 294.50 C 731.59 341.54 730.87 388.44 731.32 435.26"/>
    <path stroke="#8a6e38" vector-effect="non-scaling-stroke" d=" M 661.86 457.29 Q 662.26 456.79 662.38 456.39 A 0.37 0.37 0.0 0 0 661.96 455.92 L 552.86 476.89"/>
    <path stroke="#8a6e38" vector-effect="non-scaling-stroke" d=" M 585.21 296.69 L 599.06 252.55 A 0.42 0.42 0.0 0 0 598.66 252.00 L 494.35 252.00 A 0.69 0.68 -80.5 0 0 493.70 252.47 L 446.21 391.28"/>
    <path stroke="#9095a2" vector-effect="non-scaling-stroke" d=" M 316.88 431.28 Q 316.58 367.03 315.98 302.75 C 315.85 288.32 315.90 272.42 322.58 260.09 C 329.49 247.34 342.91 245.01 356.26 244.82 Q 377.53 244.50 397.93 249.86 A 1.01 1.01 0.0 0 0 399.20 248.88 L 399.20 202.93 A 0.54 0.54 0.0 0 0 398.66 202.39 Q 367.99 202.68 329.51 202.58 C 313.16 202.54 293.16 203.11 280.73 215.33 C 269.95 225.93 268.49 239.69 267.66 255.77 Q 266.80 272.50 259.23 410.50 Q 258.87 417.06 258.07 425.77 C 256.36 444.43 246.94 457.45 231.18 466.53 C 220.03 472.95 210.53 476.59 196.15 482.12 Q 174.43 490.47 163.09 495.11 Q 154.34 498.69 148.66 501.77"/>
    <path stroke="#8d9097" vector-effect="non-scaling-stroke" d=" M 316.88 431.28 Q 317.08 451.07 314.27 463.73 C 309.97 483.03 296.70 492.16 278.38 498.12 Q 251.08 507.00 217.93 517.46 A 0.27 0.27 0.0 0 0 217.95 517.98 Q 219.67 518.38 221.45 518.88 Q 276.24 534.40 277.69 534.81 C 287.03 537.44 295.95 541.19 302.79 547.95 C 316.29 561.31 316.98 582.37 316.89 600.50 Q 316.59 658.98 315.94 711.00 Q 315.82 720.65 315.98 734.99 C 316.21 756.54 322.87 777.57 348.06 780.01 C 364.81 781.63 381.88 779.38 398.58 775.48 A 0.61 0.60 76.2 0 1 399.30 775.92 Q 399.39 776.27 399.31 776.75"/>
    <path stroke="#8a8c92" vector-effect="non-scaling-stroke" d=" M 399.31 776.75 L 399.16 822.42 A 0.52 0.51 0.0 0 1 398.64 822.93 Q 367.28 822.56 325.01 822.27 Q 314.94 822.20 304.29 820.42 C 295.22 818.91 284.48 814.21 278.55 807.08 C 270.36 797.22 268.07 785.72 267.40 773.52 Q 265.02 730.50 262.14 687.43"/>
    <path stroke="#8d9097" vector-effect="non-scaling-stroke" d=" M 262.14 687.43 C 261.11 668.30 260.11 651.36 259.09 629.99 Q 258.28 612.94 256.93 603.51 C 253.82 581.71 239.46 571.03 220.78 562.47 Q 205.28 555.36 187.98 548.75 Q 171.23 542.35 158.57 536.48 C 150.04 532.52 140.52 526.54 140.52 515.89 Q 140.52 507.09 148.66 501.77"/>
    <path stroke="#8d9097" vector-effect="non-scaling-stroke" d=" M 907.24 519.03 Q 905.08 526.44 899.44 530.21 Q 890.61 536.11 878.93 540.67 Q 850.68 551.68 833.05 559.31 C 813.14 567.92 794.53 577.51 790.75 601.28 Q 788.83 613.36 788.47 620.25 Q 785.92 669.88 782.73 719.15"/>
    <path stroke="#8a8c92" vector-effect="non-scaling-stroke" d=" M 782.73 719.15 C 782.49 723.46 782.00 728.03 781.83 731.96 Q 780.83 755.21 778.86 779.27 C 777.74 793.02 772.03 807.25 759.98 814.25 C 747.65 821.42 732.43 822.08 719.00 822.25 Q 699.92 822.49 648.55 822.93 A 0.46 0.46 0.0 0 1 648.09 822.47 L 648.04 814.48"/>
    <path stroke="#8d9097" vector-effect="non-scaling-stroke" d=" M 648.04 814.48 L 648.02 776.28 A 0.50 0.50 0.0 0 1 648.63 775.79 Q 668.70 780.22 687.74 780.62 C 699.60 780.87 715.35 778.93 722.54 768.29 C 731.02 755.75 731.96 739.87 731.83 724.24 Q 731.30 663.13 730.90 602.25 C 730.76 581.80 731.18 554.57 751.33 542.31 Q 759.12 537.57 769.62 534.62 Q 815.94 521.60 827.65 518.74 Q 829.41 518.31 830.01 518.14 A 0.21 0.20 -44.0 0 0 830.02 517.75 Q 808.14 510.93 771.73 499.29 Q 764.82 497.07 757.43 493.56 Q 738.29 484.47 733.42 463.80 Q 730.76 452.47 731.32 435.26"/>
    <path stroke="#87692e" vector-effect="non-scaling-stroke" d=" M 585.21 296.69 L 528.28 481.04 A 0.29 0.29 0.0 0 0 528.61 481.41 L 552.86 476.89"/>
    <path stroke="#87692e" vector-effect="non-scaling-stroke" d=" M 661.86 457.29 Q 660.94 458.32 660.01 459.76 Q 649.30 476.27 643.64 484.51 Q 633.31 499.53 627.18 509.19 Q 624.20 513.88 588.91 567.44 Q 578.07 583.89 576.97 585.49 C 566.48 600.67 557.44 615.04 547.01 630.53 Q 535.29 647.93 514.57 678.38 Q 511.13 683.42 503.55 695.01 Q 496.43 705.88 492.50 711.61 Q 476.65 734.69 455.57 766.72 C 453.04 770.58 449.86 774.69 447.03 778.59 A 0.10 0.10 0.0 0 1 446.86 778.51 Q 461.32 722.64 469.31 692.37 C 483.97 636.80 497.29 583.21 512.87 525.82 C 513.49 523.54 514.29 521.84 514.58 520.62 A 0.38 0.38 0.0 0 0 514.14 520.16 L 394.13 544.81 A 0.32 0.31 4.2 0 1 393.77 544.40 L 446.21 391.28"/>
  </g>
  <g fill="#fdfcfd" style="" transform="matrix(1.27709, 0, 0, 1.27709, -157.858, -151.894)">
    <path d=" M 316.88 431.28 Q 317.08 451.07 314.27 463.73 C 309.97 483.03 296.70 492.16 278.38 498.12 Q 251.08 507.00 217.93 517.46 A 0.27 0.27 0.0 0 0 217.95 517.98 Q 219.67 518.38 221.45 518.88 Q 276.24 534.40 277.69 534.81 C 287.03 537.44 295.95 541.19 302.79 547.95 C 316.29 561.31 316.98 582.37 316.89 600.50 Q 316.59 658.98 315.94 711.00 Q 315.82 720.65 315.98 734.99 C 316.21 756.54 322.87 777.57 348.06 780.01 C 364.81 781.63 381.88 779.38 398.58 775.48 A 0.61 0.60 76.2 0 1 399.30 775.92 Q 399.39 776.27 399.31 776.75 L 399.16 822.42 A 0.52 0.51 0.0 0 1 398.64 822.93 Q 367.28 822.56 325.01 822.27 Q 314.94 822.20 304.29 820.42 C 295.22 818.91 284.48 814.21 278.55 807.08 C 270.36 797.22 268.07 785.72 267.40 773.52 Q 265.02 730.50 262.14 687.43 C 261.11 668.30 260.11 651.36 259.09 629.99 Q 258.28 612.94 256.93 603.51 C 253.82 581.71 239.46 571.03 220.78 562.47 Q 205.28 555.36 187.98 548.75 Q 171.23 542.35 158.57 536.48 C 150.04 532.52 140.52 526.54 140.52 515.89 Q 140.52 507.09 148.66 501.77 Q 154.34 498.69 163.09 495.11 Q 174.43 490.47 196.15 482.12 C 210.53 476.59 220.03 472.95 231.18 466.53 C 246.94 457.45 256.36 444.43 258.07 425.77 Q 258.87 417.06 259.23 410.50 Q 266.80 272.50 267.66 255.77 C 268.49 239.69 269.95 225.93 280.73 215.33 C 293.16 203.11 313.16 202.54 329.51 202.58 Q 367.99 202.68 398.66 202.39 A 0.54 0.54 0.0 0 1 399.20 202.93 L 399.20 248.88 A 1.01 1.01 0.0 0 1 397.93 249.86 Q 377.53 244.50 356.26 244.82 C 342.91 245.01 329.49 247.34 322.58 260.09 C 315.90 272.42 315.85 288.32 315.98 302.75 Q 316.58 367.03 316.88 431.28 Z"/>
    <path d=" M 907.24 519.03 Q 905.08 526.44 899.44 530.21 Q 890.61 536.11 878.93 540.67 Q 850.68 551.68 833.05 559.31 C 813.14 567.92 794.53 577.51 790.75 601.28 Q 788.83 613.36 788.47 620.25 Q 785.92 669.88 782.73 719.15 C 782.49 723.46 782.00 728.03 781.83 731.96 Q 780.83 755.21 778.86 779.27 C 777.74 793.02 772.03 807.25 759.98 814.25 C 747.65 821.42 732.43 822.08 719.00 822.25 Q 699.92 822.49 648.55 822.93 A 0.46 0.46 0.0 0 1 648.09 822.47 L 648.04 814.48 L 648.02 776.28 A 0.50 0.50 0.0 0 1 648.63 775.79 Q 668.70 780.22 687.74 780.62 C 699.60 780.87 715.35 778.93 722.54 768.29 C 731.02 755.75 731.96 739.87 731.83 724.24 Q 731.30 663.13 730.90 602.25 C 730.76 581.80 731.18 554.57 751.33 542.31 Q 759.12 537.57 769.62 534.62 Q 815.94 521.60 827.65 518.74 Q 829.41 518.31 830.01 518.14 A 0.21 0.20 -44.0 0 0 830.02 517.75 Q 808.14 510.93 771.73 499.29 Q 764.82 497.07 757.43 493.56 Q 738.29 484.47 733.42 463.80 Q 730.76 452.47 731.32 435.26 C 730.87 388.44 731.59 341.54 731.62 294.50 C 731.63 283.02 730.03 268.07 724.15 258.85 C 716.61 247.05 702.33 244.99 688.99 244.98 Q 668.97 244.97 648.74 249.71 A 0.53 0.52 -6.6 0 1 648.09 249.20 L 648.09 203.01 A 0.55 0.54 -89.5 0 1 648.64 202.46 Q 708.46 202.52 724.98 202.80 C 743.44 203.11 763.91 206.58 773.24 224.97 Q 778.47 235.26 779.02 247.50 Q 780.21 274.17 780.89 289.99 Q 782.39 325.46 787.80 409.85 C 788.52 421.17 789.29 433.69 794.30 444.38 C 801.59 459.89 817.21 468.48 832.47 474.79 Q 852.36 483.02 886.24 495.99 Q 892.08 498.22 899.02 502.54 Q 907.81 508.00 907.24 519.03 Z"/>
  </g>
  <path fill="#f1ae2a" d="M 589.512 227.007 L 516.807 462.44 C 516.726 462.706 516.955 462.964 517.228 462.912 L 548.198 457.14 L 687.53 430.359 C 687.876 430.298 688.166 430.622 688.066 430.96 C 687.963 431.301 687.742 431.683 687.401 432.109 C 686.618 432.986 685.831 434.038 685.039 435.264 C 675.92 449.321 668.952 459.856 664.133 466.871 C 655.338 479.66 648.331 490.167 643.112 498.39 C 640.575 502.383 624.284 527.18 594.237 572.781 C 585.008 586.786 579.925 594.471 578.989 595.833 C 565.592 615.219 554.047 633.572 540.727 653.353 C 530.748 668.168 516.939 688.536 499.298 714.463 C 496.369 718.753 491.678 725.834 485.224 735.7 C 479.162 744.955 474.458 752.022 471.112 756.9 C 457.617 776.551 441.897 800.011 423.949 827.281 C 420.718 832.212 416.657 837.459 413.042 842.44 C 412.973 842.51 412.854 842.478 412.829 842.382 C 412.825 842.368 412.824 842.353 412.825 842.339 C 425.136 794.771 434.694 758.101 441.496 732.329 C 460.219 661.361 477.229 592.921 497.127 519.628 C 497.919 516.717 498.94 514.545 499.311 512.987 C 499.39 512.646 499.093 512.335 498.749 512.4 L 345.484 543.881 C 345.175 543.935 344.919 543.644 345.024 543.358 C 345.024 543.358 345.024 543.357 345.024 543.357 L 411.995 347.808 L 472.645 170.534 C 472.766 170.174 473.1 169.932 473.475 169.933 L 606.689 169.933 C 607.054 169.933 607.313 170.29 607.199 170.636 L 589.512 227.007 Z" style=""/>
</svg>